<svg width="48" height="48" viewBox="0 0 48 48" fill="none" xmlns="http://www.w3.org/2000/svg">
<rect x="0.769231" y="0.768742" width="46.4615" height="46.4615" rx="3.23077" fill="#F1F3F7" stroke="#6D758F" stroke-width="1.53846"/>
<mask id="mask0_181_311" style="mask-type:alpha" maskUnits="userSpaceOnUse" x="1" y="1" width="46" height="46">
<rect x="1.68079" y="1.84912" width="44.6131" height="44.6024" rx="4" fill="#E3EFFF"/>
</mask>
<g mask="url(#mask0_181_311)">
<line x1="32.8206" y1="-0.000488304" x2="32.8206" y2="50.0476" stroke="#B4B9C9" stroke-width="1.02564"/>
<line x1="41.1283" y1="-0.000488304" x2="41.1283" y2="50.0476" stroke="#B4B9C9" stroke-width="1.02564"/>
<line x1="24.5128" y1="-0.000488304" x2="24.5128" y2="50.0476" stroke="#B4B9C9" stroke-width="1.02564"/>
<line x1="7.89746" y1="-0.000488304" x2="7.89747" y2="50.0476" stroke="#B4B9C9" stroke-width="1.02564"/>
<line x1="16.2052" y1="-0.000488304" x2="16.2052" y2="50.0476" stroke="#B4B9C9" stroke-width="1.02564"/>
<line x1="-1.02405" y1="16.203" x2="49.024" y2="16.203" stroke="#B4B9C9" stroke-width="1.02564"/>
<line x1="-1.02405" y1="7.89489" x2="49.024" y2="7.89489" stroke="#B4B9C9" stroke-width="1.02564"/>
<line x1="-1.02405" y1="24.5106" x2="49.024" y2="24.5106" stroke="#B4B9C9" stroke-width="1.02564"/>
<line x1="-1.02405" y1="41.1259" x2="49.024" y2="41.1259" stroke="#B4B9C9" stroke-width="1.02564"/>
<line x1="-1.02405" y1="32.8182" x2="49.024" y2="32.8182" stroke="#B4B9C9" stroke-width="1.02564"/>
<rect x="1.41187" y="1.53418" width="45.0024" height="44.9916" rx="4" fill="url(#paint0_radial_181_311)"/>
</g>
<circle cx="16" cy="31.9995" r="2" fill="white"/>
<circle cx="24" cy="23.9995" r="11" fill="white"/>
<path d="M32.2251 15.7281C31.1553 14.6479 29.8813 13.7914 28.4772 13.2085C27.0731 12.6256 25.567 12.328 24.0467 12.3331C17.6767 12.3331 12.4851 17.5247 12.4851 23.8947C12.4851 25.9364 13.0217 27.9197 14.0251 29.6697L12.3917 35.6664L18.5167 34.0564C20.2084 34.9781 22.1101 35.4681 24.0467 35.4681C30.4167 35.4681 35.6084 30.2764 35.6084 23.9064C35.6084 20.8147 34.4067 17.9097 32.2251 15.7281ZM24.0467 33.5081C22.3201 33.5081 20.6284 33.0414 19.1467 32.1664L18.7967 31.9564L15.1567 32.9131L16.1251 29.3664L15.8917 29.0047C14.9322 27.473 14.4228 25.7022 14.4217 23.8947C14.4217 18.5981 18.7384 14.2814 24.0351 14.2814C26.6017 14.2814 29.0167 15.2847 30.8251 17.1047C31.7206 17.9959 32.4303 19.056 32.913 20.2236C33.3956 21.3912 33.6416 22.643 33.6367 23.9064C33.6601 29.2031 29.3434 33.5081 24.0467 33.5081ZM29.3201 26.3214C29.0284 26.1814 27.6051 25.4814 27.3484 25.3764C27.0801 25.2831 26.8934 25.2364 26.6951 25.5164C26.4967 25.8081 25.9484 26.4614 25.7851 26.6481C25.6217 26.8464 25.4467 26.8697 25.1551 26.7181C24.8634 26.5781 23.9301 26.2631 22.8334 25.2831C21.9701 24.5131 21.3984 23.5681 21.2234 23.2764C21.0601 22.9847 21.2001 22.8331 21.3517 22.6814C21.4801 22.5531 21.6434 22.3431 21.7834 22.1797C21.9234 22.0164 21.9817 21.8881 22.0751 21.7014C22.1684 21.5031 22.1217 21.3397 22.0517 21.1997C21.9817 21.0597 21.3984 19.6364 21.1651 19.0531C20.9317 18.4931 20.6867 18.5631 20.5117 18.5514H19.9517C19.7534 18.5514 19.4501 18.6214 19.1817 18.9131C18.9251 19.2047 18.1784 19.9047 18.1784 21.3281C18.1784 22.7514 19.2167 24.1281 19.3567 24.3147C19.4967 24.5131 21.3984 27.4297 24.2917 28.6781C24.9801 28.9814 25.5167 29.1564 25.9367 29.2847C26.6251 29.5064 27.2551 29.4714 27.7567 29.4014C28.3167 29.3197 29.4717 28.7014 29.7051 28.0247C29.9501 27.3481 29.9501 26.7764 29.8684 26.6481C29.7867 26.5197 29.6117 26.4614 29.3201 26.3214Z" fill="#6D758F"/>
<defs>
<radialGradient id="paint0_radial_181_311" cx="0" cy="0" r="1" gradientUnits="userSpaceOnUse" gradientTransform="translate(23.9131 24.03) rotate(90) scale(22.4958 22.5012)">
<stop stop-color="#F6FAFD" stop-opacity="0.28"/>
<stop offset="1" stop-color="#F6FAFD"/>
</radialGradient>
</defs>
</svg>
